<svg xmlns="http://www.w3.org/2000/svg" width="68.757" height="68.758" viewBox="0 0 68.757 68.758"><defs><style>.a{fill:#fff;}</style></defs><g transform="translate(-2 -2)"><path class="a" d="M69.611,18.043H34.087V7.73a1.146,1.146,0,0,0-1.146-1.146H31.795V3.146A1.146,1.146,0,0,0,30.649,2H26.065a1.146,1.146,0,0,0-1.146,1.146V6.584H23.773A1.146,1.146,0,0,0,22.627,7.73v3.438H19.189a1.146,1.146,0,0,0-1.146,1.146v5.73H3.146A1.146,1.146,0,0,0,2,19.189V53.568a1.146,1.146,0,0,0,1.146,1.146H22.627v3.438a1.146,1.146,0,0,0,.081.425l4.584,11.46a1.146,1.146,0,0,0,2.129,0l4.584-11.46a1.146,1.146,0,0,0,.081-.425V54.714H69.611a1.146,1.146,0,0,0,1.146-1.146V19.189A1.146,1.146,0,0,0,69.611,18.043ZM24.919,57.006V13.46h6.876V57.006ZM27.211,4.292H29.5V6.584H27.211ZM24.919,8.876h6.876v2.292H24.919ZM20.335,13.46h2.292v4.584H20.335ZM4.292,52.422V20.335H18.043v8.022h2.292V20.335h2.292V52.422Zm24.065,14.1L25.466,59.3h5.782Zm40.108-14.1H34.087V20.335H68.465Z"/><path class="a" d="M44,20h4.584v2.292H44Z" transform="translate(6.13 2.627)"/><path class="a" d="M50,20h9.168v2.292H50Z" transform="translate(7.006 2.627)"/><path class="a" d="M7.146,26.876H11.73a1.146,1.146,0,0,0,1.146-1.146V21.146A1.146,1.146,0,0,0,11.73,20H7.146A1.146,1.146,0,0,0,6,21.146V25.73A1.146,1.146,0,0,0,7.146,26.876Zm1.146-4.584h2.292v2.292H8.292Z" transform="translate(0.584 2.627)"/><path class="a" d="M35.146,30.876H60.357A1.146,1.146,0,0,0,61.5,29.73V25.146A1.146,1.146,0,0,0,60.357,24H35.146A1.146,1.146,0,0,0,34,25.146V29.73A1.146,1.146,0,0,0,35.146,30.876Zm1.146-4.584H59.211v2.292H36.292Z" transform="translate(4.671 3.211)"/><path class="a" d="M12,28h6.876v2.292H12Z" transform="translate(1.46 3.795)"/><path class="a" d="M6,28h4.584v2.292H6Z" transform="translate(0.584 3.795)"/><path class="a" d="M32,32H61.795v2.292H32Z" transform="translate(4.379 4.379)"/><path class="a" d="M40,42h4.584v2.292H40Z" transform="translate(5.546 5.838)"/><path class="a" d="M46,42H59.751v2.292H46Z" transform="translate(6.422 5.838)"/><path class="a" d="M49.6,40.318a1.146,1.146,0,0,0,1.467,0l2.024-1.682,2.019,1.682,1.467-1.762-2.75-2.292a1.146,1.146,0,0,0-1.466,0l-2.02,1.685-2.015-1.68a1.146,1.146,0,0,0-1.469,0l-2.017,1.68-2.012-1.68-1.469,1.76,2.75,2.292a1.146,1.146,0,0,0,1.468,0l2.013-1.685Z" transform="translate(5.745 4.962)"/><path class="a" d="M6,32H19.751v2.292H6Z" transform="translate(0.584 4.379)"/></g></svg>