<svg xmlns="http://www.w3.org/2000/svg" xmlns:xlink="http://www.w3.org/1999/xlink" width="375" height="1239" viewBox="0 0 375 1239"><defs><style>.a,.d{fill:#fff;}.a{stroke:#707070;}.b{fill:url(#a);}.c{clip-path:url(#b);}.d{opacity:0.08;}</style><linearGradient id="a" x1="0.5" x2="0.5" y2="1" gradientUnits="objectBoundingBox"><stop offset="0" stop-color="#017cd9"/><stop offset="1" stop-color="#002087"/></linearGradient><clipPath id="b"><rect class="a" width="375" height="626"/></clipPath></defs><rect class="b" width="375" height="1239"/><g class="c"><path class="d" d="M1182.052,593.331l-79.834,76.51s-59.883-78.172-151.358-33.263-46.572,158.014-46.572,158.014,36.59,73.184,129.734,59.047c0,0,36.594-4.995,70.687-46.572l235.358-232.031,69.858-63.2s40.748-34.932,96.469,0l163.832,157.179s50.731,58.212,19.96,117.259L1515.543,963.412s-44.083,29.937-100.631,7.486S1271.869,837,1271.869,837l78.174-74.018,105.619,103.128,128.07-128.334L1456.5,614.127,1205.338,864.444s-79.006,77.344-123.916,88.99c0,0-95.635,34.925-174.643-10.812S785.361,826.5,782.869,737.78c0,0-1.662-155.26,140.545-210.146,0,0,86.493-36.595,163-.835S1182.052,593.331,1182.052,593.331Z" transform="translate(-1060.868 -546.309)"/></g></svg>