<svg xmlns="http://www.w3.org/2000/svg" width="30" height="29.813" viewBox="0 0 30 29.813"><defs><style>.a{fill:#666;}</style></defs><g transform="translate(179 -69.01)"><g transform="translate(-179 69.01)"><path class="a" d="M5.625,1.28h18.75A5.617,5.617,0,0,1,30,6.9v12a5.617,5.617,0,0,1-5.625,5.625h-2.85l-.15,5.1a1.343,1.343,0,0,1-.712,1.313,1.471,1.471,0,0,1-.675.15A1.708,1.708,0,0,1,18.9,30.68l-8.025-6.15H5.625A5.617,5.617,0,0,1,0,18.9V6.9A5.642,5.642,0,0,1,5.625,1.28Zm16.5,14.55A2.625,2.625,0,1,0,19.5,13.2,2.609,2.609,0,0,0,22.125,15.83ZM15,15.83A2.625,2.625,0,1,0,12.375,13.2,2.609,2.609,0,0,0,15,15.83Zm-7.125,0A2.625,2.625,0,1,0,5.25,13.2,2.609,2.609,0,0,0,7.875,15.83Z" transform="translate(0 -1.28)"/></g></g></svg>