<svg xmlns="http://www.w3.org/2000/svg" width="45" height="53.237" viewBox="0 0 45 53.237"><defs><style>.a{fill:#e95454;}.b{fill:#ed6362;}.c{fill:#ffcc5b;}.d{fill:#fdbc4b;}.e{fill:#ffdb70;}.f{fill:#fff;opacity:0.2;}.g{fill:#ec9922;}</style></defs><g transform="translate(-39.592)"><path class="a" d="M51.218,221.248l-11.626,21.9,10.558-.975,5.11,9.291,11.626-21.9Z" transform="translate(0 -198.232)"/><g transform="translate(49.197 23.016)"><path class="b" d="M135.273,275.714a1.484,1.484,0,0,0-.7-1.9l-.669-.356a1.431,1.431,0,0,1,1.376-2.508l1.891,1a1.193,1.193,0,0,0,1.618-.5l.047-.09a1.128,1.128,0,0,0-.434-1.591l-5.656-3a1.489,1.489,0,0,1-.706-1.9,1.434,1.434,0,0,1,1.971-.659l5.246,2.785a1.207,1.207,0,0,0,1.626-.5l.03-.077.008-.017a1.256,1.256,0,0,0-.518-1.709l-2.943-1.561a1.489,1.489,0,0,1-.7-1.911,1.44,1.44,0,0,1,1.971-.659l3.251,1.726a1.214,1.214,0,0,0,1.648-.559.078.078,0,0,0,.008-.017.076.076,0,0,0,.008-.017,1.212,1.212,0,0,0-.461-1.678l-3.507-1.861a1.486,1.486,0,0,1-.7-1.9,1.434,1.434,0,0,1,1.971-.659l8.652,4.592-11.626,21.9-3.2-5.824A1.362,1.362,0,0,0,135.273,275.714Z" transform="translate(-131.92 -251.872)"/><path class="b" d="M225.467,221.248l11.626,21.9-10.558-.975-5.11,9.291-11.626-21.9Z" transform="translate(-201.698 -221.248)"/></g><path class="a" d="M224.15,275.728a1.484,1.484,0,0,1,.7-1.9l.669-.356a1.431,1.431,0,0,0-1.376-2.508l-1.891,1a1.193,1.193,0,0,1-1.618-.5l-.047-.09a1.128,1.128,0,0,1,.434-1.591l5.657-3a1.489,1.489,0,0,0,.706-1.9,1.434,1.434,0,0,0-1.971-.659L220.166,267a1.207,1.207,0,0,1-1.626-.5l-.03-.077-.008-.017a1.256,1.256,0,0,1,.518-1.709l2.943-1.561a1.489,1.489,0,0,0,.7-1.911,1.44,1.44,0,0,0-1.971-.659l-3.254,1.729a1.214,1.214,0,0,1-1.648-.559.079.079,0,0,1-.008-.017.077.077,0,0,1-.008-.017,1.212,1.212,0,0,1,.461-1.678l3.507-1.861a1.486,1.486,0,0,0,.7-1.9,1.434,1.434,0,0,0-1.971-.659l-8.652,4.592,11.626,21.9,3.2-5.824A1.385,1.385,0,0,1,224.15,275.728Z" transform="translate(-152.516 -228.87)"/><circle class="c" cx="19.426" cy="19.426" r="19.426" transform="translate(42.666 0)"/><path class="d" d="M91.692,29.755H79.382a1.75,1.75,0,0,1-1.743-1.743l.013-.12v-.027a1.82,1.82,0,0,1,1.823-1.836h8.532a2.158,2.158,0,0,0,2.2-1.969,2.086,2.086,0,0,0-2.076-2.182H79.089a1.759,1.759,0,0,1-1.729-1.836V19.99a1.759,1.759,0,0,1,1.729-1.836h9.457A2.153,2.153,0,0,0,90.728,16.2a2.078,2.078,0,0,0-2.076-2.182H81.727a19.423,19.423,0,0,0,0,35.93h8.793A2.153,2.153,0,0,0,92.7,47.991a2.077,2.077,0,0,0-2.076-2.18l-10,0a2.07,2.07,0,0,1-2.067-2.182,2.15,2.15,0,0,1,2.184-1.959H84.62a2.073,2.073,0,0,0-.06-4.144H78.681a1.729,1.729,0,0,1-1.729-1.743v-.146a1.637,1.637,0,0,1,1.636-1.743H91.572a2.157,2.157,0,0,0,2.2-1.956A2.079,2.079,0,0,0,91.692,29.755Z" transform="translate(-26.965 -12.558)"/><path class="e" d="M136.451,81.171a13.866,13.866,0,1,1,13.867-13.865A13.883,13.883,0,0,1,136.451,81.171Z" transform="translate(-74.359 -47.881)"/><path class="f" d="M244.13,67.651a13.873,13.873,0,0,0-13.071-13.827h-1.292a1.643,1.643,0,0,0-1.664,1.491,1.586,1.586,0,0,0,1.583,1.664l7.63,0a1.578,1.578,0,0,1,1.576,1.664,1.64,1.64,0,0,1-1.666,1.495h-2.958a1.581,1.581,0,0,0,.045,3.161H238.8a1.318,1.318,0,0,1,1.318,1.328v.11a1.247,1.247,0,0,1-1.248,1.328h-9.9a1.646,1.646,0,0,0-1.674,1.491,1.586,1.586,0,0,0,1.583,1.664h9.387a1.333,1.333,0,0,1,1.328,1.328l-.01.092v.02a1.388,1.388,0,0,1-1.39,1.4h-6.508a1.647,1.647,0,0,0-1.674,1.5,1.592,1.592,0,0,0,1.583,1.664h6.892a1.341,1.341,0,0,1,1.318,1.4v.04a1.341,1.341,0,0,1-1.318,1.4H231.27a1.643,1.643,0,0,0-1.664,1.491,1.585,1.585,0,0,0,1.583,1.664h1.9A13.889,13.889,0,0,0,244.13,67.651Z" transform="translate(-168.171 -48.225)"/><path class="g" d="M174.458,96.645h-6.744l-2.086-6.415a.9.9,0,0,0-1.7,0l-2.084,6.415H155.1a.9.9,0,0,0-.526,1.62l5.456,3.965-2.084,6.415a.9.9,0,0,0,1.378,1l5.456-3.965,5.456,3.965a.9.9,0,0,0,1.378-1l-2.084-6.415,5.456-3.965A.9.9,0,0,0,174.458,96.645Z" transform="translate(-102.686 -80.29)"/></g></svg>