<svg xmlns="http://www.w3.org/2000/svg" width="95.092" height="34.063" viewBox="0 0 95.092 34.063"><defs><style>.a{fill:#fff;}</style></defs><g transform="translate(0 -15.342)"><g transform="translate(26.883 43.308)"><path class="a" d="M18.745,29.649c0-.193-.056-.253-.245-.245a6.313,6.313,0,0,1-.726,0c-.2-.014-.253.052-.253.253.008,1.329,0,2.653,0,3.978v.284a.192.192,0,0,1-.078-.1q-1.005-2.109-2-4.219a.285.285,0,0,0-.306-.2c-.376.012-.754,0-1.132,0h-.491v5.937H14.4c.328,0,.328,0,.328-.318V30.544c.052.1.076.139.1.181q1.038,2.22,2.069,4.445a.255.255,0,0,0,.272.179c.455-.006.913-.006,1.368,0,.151,0,.211-.044.209-.207-.006-.509,0-1.014,0-1.52C18.741,32.3,18.737,30.973,18.745,29.649Z" transform="translate(-13.516 -29.402)"/></g><g transform="translate(12.137 43.305)"><path class="a" d="M12.554,29.409c-.507.008-1.012.02-1.518,0-.253-.014-.342.09-.41.306-.394,1.3-.806,2.6-1.223,3.928a1.03,1.03,0,0,1-.044-.1c-.378-1.313-.76-2.621-1.134-3.932-.044-.153-.105-.209-.267-.2-.3.012-.6,0-.9,0H6.1V35.34c.32,0,.627-.01.931,0,.2.01.269-.054.267-.263-.006-1.458,0-2.922,0-4.384v-.177c.251.688.467,1.378.68,2.069.267.857.533,1.707.794,2.566a.226.226,0,0,0,.259.191c.241-.012.483,0,.726-.012a.243.243,0,0,0,.177-.125c.382-1.187.756-2.369,1.13-3.554.129-.408.259-.81.388-1.213l.038.008v4.895c.37,0,.724-.006,1.078,0,.153.006.2-.052.2-.2q0-2.769,0-5.535C12.767,29.457,12.713,29.405,12.554,29.409Z" transform="translate(-6.102 -29.401)"/></g><g transform="translate(19.936 43.195)"><path class="a" d="M15.461,30.956a2.281,2.281,0,0,0-1.341-1.388,3.445,3.445,0,0,0-1.927-.149,2.371,2.371,0,0,0-1.671,1.174,4.148,4.148,0,0,0-.5,1.718c.054.422.074.849.165,1.263a2.312,2.312,0,0,0,1.345,1.689,3.249,3.249,0,0,0,2.1.2,2.339,2.339,0,0,0,1.709-1.321A3.968,3.968,0,0,0,15.461,30.956Zm-1.092,1.428a3.194,3.194,0,0,1-.217,1.337,1.255,1.255,0,0,1-1.307.863,1.25,1.25,0,0,1-1.245-.923,3.72,3.72,0,0,1,.01-2.466,1.363,1.363,0,0,1,2.576.024,9.853,9.853,0,0,1,.239,1.162C14.4,32.38,14.387,32.384,14.369,32.384Z" transform="translate(-10.023 -29.345)"/></g><g transform="translate(0 15.583)"><path class="a" d="M10.685,15.479q-.4,2.983-.8,5.951c-.024,0-.046,0-.068,0-.086-.611-.169-1.221-.261-1.834-.193-1.3-.4-2.6-.581-3.9-.026-.185-.084-.229-.261-.229-1.142.008-2.279,0-3.421,0-.076,0-.151.008-.229.012-.3,2-.589,3.974-.879,5.953H4.121q-.4-2.978-.8-5.959H0a1.582,1.582,0,0,0,.014.193Q.587,18.3,1.16,20.933c.272,1.263.545,2.528.81,3.793.038.177.1.253.3.251,1.04-.012,2.08-.006,3.119-.006h.7c.294-2.051.589-4.087.879-6.124h.07q.439,3.058.879,6.124h3.62c.438,0,.438,0,.533-.434q.5-2.279.993-4.559.388-1.793.772-3.576c.064-.3.123-.609.187-.923Z" transform="translate(0 -15.463)"/></g><g transform="translate(16.258 15.577)"><path class="a" d="M11.782,22.511V21.419H15.1V18.965H11.778V17.92h3.6c0-.09.012-.151.012-.215,0-.672-.006-1.341,0-2.011,0-.193-.068-.235-.251-.235q-3.344.009-6.691,0c-.28,0-.28,0-.28.28q0,4.457,0,8.913c0,.1.008.2.016.3h7.3V22.511Z" transform="translate(-8.174 -15.46)"/></g><g transform="translate(69.68 15.577)"><path class="a" d="M41.595,15.478V21.19l-.054.008c-.028-.066-.058-.125-.082-.189q-.934-2.676-1.866-5.352a.246.246,0,0,0-.272-.2q-2.02.012-4.04,0c-.2,0-.253.058-.249.251q.006,4.508,0,9.018a2.054,2.054,0,0,0,.016.237c.084.006.147.01.207.01.861,0,1.709-.006,2.568,0,.189,0,.237-.042.237-.237-.008-1.78,0-3.562,0-5.342,0-.066.012-.129.016-.193a2.137,2.137,0,0,1,.217.473c.587,1.691,1.177,3.381,1.756,5.074a.285.285,0,0,0,.326.221c1.353-.008,2.7,0,4.06,0,.05,0,.109-.008.163-.012V15.478Z" transform="translate(-35.033 -15.46)"/></g><g transform="translate(47.903 15.593)"><path class="a" d="M31.167,22.509c-1.094.006-2.192,0-3.288,0-.078,0-.151-.008-.229-.012V21.415h3.314V18.957h-3.31V17.912h3.6V15.468H24.084v9.483a.944.944,0,0,0,.1.012c2.345,0,4.692,0,7.023,0,.143,0,.187-.044.183-.185,0-.682-.012-1.366,0-2.051C31.4,22.549,31.338,22.509,31.167,22.509Z" transform="translate(-24.084 -15.468)"/></g><g transform="translate(57.953 15.581)"><path class="a" d="M37.891,22.787c-.07-.442-.111-.889-.193-1.327a1.475,1.475,0,0,0-1.189-1.223l-.408-.1c.115-.038.167-.054.217-.072a2.337,2.337,0,0,0,1.279-.843,2.437,2.437,0,0,0,.346-1.679,1.935,1.935,0,0,0-1.329-1.788,5.679,5.679,0,0,0-1.971-.284c-1.762-.01-3.522,0-5.279,0h-.227v9.493h3.644v-3.4c.312.026.607.032.887.08a.534.534,0,0,1,.45.436c.056.249.093.5.133.754.115.65.225,1.3.334,1.951a.206.206,0,0,0,.241.2c1.088-.008,2.182,0,3.27,0,.06,0,.123-.008.151-.01C38.123,24.227,38.006,23.507,37.891,22.787ZM33.9,19.295a2.11,2.11,0,0,1-1.112.133c0-.611,0-1.2,0-1.814a2.666,2.666,0,0,1,1.174.119.713.713,0,0,1,.416.748A.837.837,0,0,1,33.9,19.295Z" transform="translate(-29.137 -15.462)"/></g><g transform="translate(90.401 15.677)"><path class="a" d="M45.451,15.51V36.16h1.142V15.51Z" transform="translate(-45.451 -15.51)"/></g><g transform="translate(36.963 15.595)"><path class="a" d="M18.584,15.469v2.538h2.345v6.946H24.67V18H27V15.469Z" transform="translate(-18.584 -15.469)"/></g><g transform="translate(25.913 15.342)"><path class="a" d="M20.113,19.489c-.633-.233-1.291-.392-1.937-.585-.414-.123-.833-.235-1.241-.376a.462.462,0,0,1-.306-.493.471.471,0,0,1,.37-.469,2.5,2.5,0,0,1,.776-.066.576.576,0,0,1,.549.537c.022.2.113.219.278.219.955,0,1.909,0,2.862,0,.07,0,.139-.008.2-.012a.272.272,0,0,0,.026-.056.342.342,0,0,0,0-.064A2.432,2.432,0,0,0,20.4,15.915a4.57,4.57,0,0,0-1.915-.529,7.824,7.824,0,0,0-3.147.269,2.754,2.754,0,0,0-2.112,2.389A2.363,2.363,0,0,0,14.758,20.8c.7.269,1.434.448,2.154.668.382.115.766.221,1.138.358a.605.605,0,0,1,.44.654.826.826,0,0,1-.772.7c-.565.046-.9-.125-1.028-.547-.048-.145-.072-.3-.109-.461H13.042a.86.86,0,0,0-.014.123c0,.05,0,.1,0,.149a2.757,2.757,0,0,0,1.961,2.518,6.747,6.747,0,0,0,2.283.366,7.376,7.376,0,0,0,2.566-.352,2.889,2.889,0,0,0,2.092-2.261A2.617,2.617,0,0,0,20.113,19.489Z" transform="translate(-13.028 -15.342)"/></g><g transform="translate(50.578 26.992)"><path class="a" d="M28.953,21.2c-.613.012-1.229.006-1.838.008H25.445c0,.088-.012.149-.012.211q0,4.541,0,9.078c0,.163.038.221.217.221,1.072-.01,2.148,0,3.224,0,.29,0,.29,0,.29-.29V22.2c0-.263-.008-.527,0-.79C29.162,21.247,29.113,21.2,28.953,21.2Z" transform="translate(-25.429 -21.199)"/></g><g transform="translate(33.54 43.305)"><path class="a" d="M20.726,34.32c-.762.008-1.524,0-2.287,0-.082,0-.165-.008-.271-.012,0-.453.006-.885,0-1.321,0-.167.05-.219.217-.219.656.008,1.311,0,1.967,0,.1,0,.195-.012.3-.016v-.973c-.1-.008-.193-.018-.282-.018-.662,0-1.327,0-1.989,0-.072,0-.2-.068-.2-.107-.016-.412-.01-.823-.01-1.267h2.665c0-.249-.016-.481,0-.714s-.054-.28-.271-.276q-1.718.012-3.441,0c-.2,0-.265.05-.263.257.006,1.8,0,3.608,0,5.408v.263h4.058c0-.274-.01-.539,0-.8C20.934,34.37,20.885,34.32,20.726,34.32Z" transform="translate(-16.863 -29.401)"/></g><g transform="translate(25.783 27.01)"><path class="a" d="M18.228,21.216v.519c0,1.852,0,3.705-.006,5.557a2.234,2.234,0,0,1-.1.666.693.693,0,0,1-1.287.048,1.711,1.711,0,0,1-.127-.619c-.01-1.973-.008-3.946-.008-5.919v-.261H12.977c-.006.054-.012.08-.012.107,0,2.16-.01,4.318.014,6.474a3.242,3.242,0,0,0,.245,1.118,2.924,2.924,0,0,0,2.08,1.744,8.032,8.032,0,0,0,4.113.066,3.061,3.061,0,0,0,2.552-3.184q.006-3.034,0-6.068v-.249Z" transform="translate(-12.963 -21.208)"/></g><g transform="translate(70.776 43.218)"><path class="a" d="M39.886,32.518a3.194,3.194,0,0,0-.947-.448c-.42-.147-.863-.233-1.291-.358a.677.677,0,0,1-.428-1.088,1.05,1.05,0,0,1,1.47-.1,3.252,3.252,0,0,1,.348.636H40.2A1.6,1.6,0,0,0,39.039,29.5a3.493,3.493,0,0,0-1.788-.046,2.218,2.218,0,0,0-.963.477,1.6,1.6,0,0,0,.288,2.6,5.453,5.453,0,0,0,.77.308c.408.133.827.219,1.229.356a.638.638,0,0,1,.189,1.142,1.18,1.18,0,0,1-.475.209c-.682.135-1.406-.044-1.4-.953,0-.044-.1-.117-.155-.119-.241-.014-.481-.006-.726-.006-.44,0-.448,0-.406.436a1.562,1.562,0,0,0,1.034,1.416,3.527,3.527,0,0,0,2.116.107,2.142,2.142,0,0,0,1.311-.812A1.515,1.515,0,0,0,39.886,32.518Z" transform="translate(-35.584 -29.357)"/></g><g transform="translate(81.463 15.677)"><path class="a" d="M40.957,15.51V36.16h1.15V15.51Z" transform="translate(-40.957 -15.51)"/></g><g transform="translate(76.781 43.319)"><path class="a" d="M42.424,29.428a1.824,1.824,0,0,0-.187-.016c-1.144,0-2.281,0-3.421,0-.187,0-.211.09-.211.249,0,1.8,0,3.606,0,5.4a.38.38,0,0,0,0,.151c.024.048.074.117.113.117.386.01.77.006,1.185.006V32.829h2.365v-.738c0-.282,0-.282-.284-.282-.625,0-1.251,0-1.876,0-.078,0-.2-.066-.207-.107-.014-.43-.01-.859-.01-1.315h2.524C42.424,30.048,42.424,29.742,42.424,29.428Z" transform="translate(-38.603 -29.408)"/></g><g transform="translate(81.702 43.305)"><path class="a" d="M44.852,34.324c-.762,0-1.526-.006-2.281,0-.173,0-.219-.058-.215-.219.012-.332,0-.668,0-1s0-.328.316-.328h1.86c.1,0,.2-.01.322-.016v-.71c0-.28,0-.28-.286-.28-.66,0-1.325,0-1.985-.006-.074,0-.211-.062-.211-.1-.012-.42-.008-.835-.008-1.275h2.661c0-.263-.016-.5,0-.73.016-.211-.058-.265-.265-.261-1.148.008-2.293,0-3.439,0-.082,0-.163.008-.253.012v5.911H45.1v-1Z" transform="translate(-41.077 -29.401)"/></g><g transform="translate(92.613 15.525)"><path class="a" d="M47.8,15.434a1.236,1.236,0,1,0,.04,2.472,1.219,1.219,0,0,0,1.2-1.237A1.205,1.205,0,0,0,47.8,15.434Zm.01,2.349a1.112,1.112,0,0,1,.016-2.224,1.113,1.113,0,0,1-.016,2.224Z" transform="translate(-46.563 -15.434)"/></g><g transform="translate(86.881 43.311)"><path class="a" d="M48.12,34.052c-.048-.257-.078-.513-.121-.766a.961.961,0,0,0-.885-.885c.109-.044.171-.074.229-.1a1.353,1.353,0,0,0,.9-1.368,1.422,1.422,0,0,0-1.052-1.394,3.96,3.96,0,0,0-.971-.125c-.762-.016-1.524,0-2.283,0-.082,0-.163.008-.257.016v5.907h1.3V32.968H46.09c.45,0,.595.129.66.575.082.545.163,1.1.249,1.641.008.058.066.151.1.153.434.01.865.006,1.257.006C48.276,34.9,48.194,34.472,48.12,34.052Zm-1.888-2.09c-.374.028-.754.016-1.128.024-.123,0-.159-.064-.159-.175,0-.211,0-.424,0-.64s0-.428,0-.638c0-.119.042-.163.163-.159.366.016.726.008,1.092.028a.668.668,0,0,1,.688.726A.763.763,0,0,1,46.233,31.962Z" transform="translate(-43.681 -29.404)"/></g><g transform="translate(37.844 26.992)"><path class="a" d="M25.611,21.215v5.71c-.02,0-.04.006-.062.01-.02-.05-.046-.1-.062-.145Q24.541,24.1,23.6,21.4a.248.248,0,0,0-.286-.2q-2.02.009-4.04,0c-.195,0-.249.048-.249.249q.006,4.514,0,9.018c0,.076.008.149.012.231H22.06c0-1.925,0-3.839,0-5.754l.058-.008c.036.09.074.175.105.265q.925,2.652,1.846,5.313a.251.251,0,0,0,.286.2q2.032-.006,4.062,0c.062,0,.125-.01.2-.014V21.215Z" transform="translate(-19.027 -21.199)"/></g><g transform="translate(93.451 16.081)"><path class="a" d="M48,15.981a.442.442,0,0,0-.267-.249,5.307,5.307,0,0,0-.754-.01v1.351l.078,0v-.611c.249-.078.4-.038.5.173a2,2,0,0,0,.211.342.7.7,0,0,0,.159.109c.014-.014.026-.03.038-.044-.123-.195-.245-.39-.374-.593a1.467,1.467,0,0,0,.229-.068A.31.31,0,0,0,48,15.981Zm-.541.342c-.37,0-.473-.151-.374-.446.008-.026.03-.068.042-.066a5.585,5.585,0,0,1,.66.07c.042.008.082.167.062.241a.35.35,0,0,1-.181.181A.537.537,0,0,1,47.463,16.323Z" transform="translate(-46.984 -15.713)"/></g><g transform="translate(46.676 43.312)"><path class="a" d="M27.22,29.406c-1.17,0-2.339,0-3.507,0-.183,0-.261.046-.245.241a4.323,4.323,0,0,1,0,.579c-.01.157.048.211.207.207.434-.01.869,0,1.3-.006.185-.008.243.046.243.237-.008,1.442,0,2.882,0,4.32a1.006,1.006,0,0,0,.008.233c.012.052.07.123.109.123.39.008.78.006,1.189.006v-.284c0-1.4,0-2.793,0-4.191.006-.491-.086-.436.446-.44.422,0,.847,0,1.287,0V29.406Z" transform="translate(-23.467 -29.404)"/></g><g transform="translate(38.374 43.347)"><path class="a" d="M23.388,29.422a.229.229,0,0,0-.253.167c-.215.479-.442.959-.662,1.432-.159.346-.318.684-.489,1.052-.032-.072-.05-.107-.068-.149-.354-.786-.706-1.567-1.066-2.351a.27.27,0,0,0-.171-.141c-.448-.01-.9-.006-1.386-.006.044.09.066.149.1.207.591,1.1,1.187,2.2,1.77,3.31a.976.976,0,0,1,.107.424c.01.583.008,1.17,0,1.752,0,.155.042.211.2.207.284-.012.571-.012.855,0,.175.008.235-.048.233-.227-.01-.593-.008-1.185,0-1.776a.651.651,0,0,1,.07-.3c.465-.889.939-1.776,1.41-2.659.161-.3.318-.6.5-.941C24.122,29.424,23.756,29.43,23.388,29.422Z" transform="translate(-19.293 -29.422)"/></g><g transform="translate(69.678 26.998)"><path class="a" d="M41.586,21.222v5.7a.294.294,0,0,1-.117-.161q-.946-2.685-1.876-5.372a.23.23,0,0,0-.253-.191q-2.05.009-4.1,0c-.165,0-.207.056-.207.211q.006,4.541,0,9.08c0,.183.066.221.237.221.845-.014,1.691-.014,2.544,0,.193,0,.253-.052.251-.251-.008-1.74,0-3.477,0-5.217v-.306a.446.446,0,0,1,.139.2q.934,2.691,1.866,5.378a.241.241,0,0,0,.271.2c1.356-.008,2.705,0,4.064,0H44.6V21.222Z" transform="translate(-35.032 -21.202)"/></g><g transform="translate(52.35 43.303)"><path class="a" d="M30.913,34.88c-.066-.438-.135-.879-.2-1.323-.082-.555-.225-1.06-.949-1.154.121-.048.191-.078.261-.105a1.369,1.369,0,0,0,.879-1.341,1.4,1.4,0,0,0-.913-1.368,3.4,3.4,0,0,0-1.062-.175c-.788-.03-1.583,0-2.369-.012-.191,0-.241.056-.241.245.008,1.812,0,3.63,0,5.448,0,.074.008.149.016.229h1.309V32.965c.455,0,.889-.014,1.325.008a.411.411,0,0,1,.388.342,4.361,4.361,0,0,1,.09.481c.074.505.143,1.01.215,1.528h1.386A4.132,4.132,0,0,1,30.913,34.88Zm-1.977-2.92a10.742,10.742,0,0,1-1.215.022c-.042,0-.113-.086-.113-.129-.01-.477-.006-.953-.006-1.436a13.754,13.754,0,0,1,1.436.012c.346.036.525.358.517.774A.739.739,0,0,1,28.936,31.96Z" transform="translate(-26.32 -29.4)"/></g><g transform="translate(57.083 26.752)"><path class="a" d="M38.194,24.031a3.978,3.978,0,0,0-2.152-2.466,5.5,5.5,0,0,0-2.3-.485,5.269,5.269,0,0,0-3.023.732,4.417,4.417,0,0,0-1.981,3.511,6.688,6.688,0,0,0,.167,2.435,4.138,4.138,0,0,0,1.752,2.536,5.514,5.514,0,0,0,2.95.8c.416-.042.841-.062,1.247-.137A4.055,4.055,0,0,0,38.12,28.32,6.338,6.338,0,0,0,38.194,24.031ZM34.439,27.9a.793.793,0,0,1-.929.712.628.628,0,0,1-.609-.4,4.334,4.334,0,0,1-.284-1.126c-.022-.784.014-1.573.048-2.361a2.49,2.49,0,0,1,.179-.7.739.739,0,0,1,.718-.507.764.764,0,0,1,.788.465,4.078,4.078,0,0,1,.278,1.436c.016.213,0,.428,0,.642l.068.006C34.614,26.685,34.57,27.3,34.439,27.9Z" transform="translate(-28.699 -21.078)"/></g><g transform="translate(64.407 43.306)"><path class="a" d="M37.43,29.407c-.259,0-.523.012-.788,0-.187-.01-.245.042-.245.235.008,1.374,0,2.753,0,4.125,0,.054,0,.1-.012.187-.04-.072-.062-.107-.082-.149q-1-2.1-1.989-4.2a.281.281,0,0,0-.3-.2c-.461.012-.929.012-1.386,0-.2,0-.249.06-.249.257q.006,2.727,0,5.446v.241h.937c.286,0,.286,0,.286-.278V30.6a.249.249,0,0,1,.038-.006c.171.368.342.732.513,1.1q.806,1.739,1.623,3.479a.318.318,0,0,0,.231.161c.479.016.955.008,1.432.01.125,0,.179-.044.179-.175q-.006-2.787,0-5.579C37.625,29.458,37.577,29.4,37.43,29.407Z" transform="translate(-32.382 -29.401)"/></g><g transform="translate(57.655 43.3)"><path class="a" d="M34.632,35.15c-.207-.6-.414-1.2-.627-1.806q-.65-1.874-1.293-3.749a.241.241,0,0,0-.276-.191c-.352.012-.7.016-1.048,0-.213-.014-.294.078-.362.265q-.746,2.1-1.506,4.191c-.171.479-.342.957-.533,1.484.378,0,.712-.008,1.046,0a.227.227,0,0,0,.257-.191c.093-.3.207-.593.294-.889a.245.245,0,0,1,.276-.2c.505.012,1.014,0,1.52,0,.6,0,.593,0,.784.575.074.229.111.531.271.652s.455.04.688.042c.179,0,.358,0,.559,0C34.656,35.243,34.644,35.2,34.632,35.15Zm-3.62-2.084c.278-.8.547-1.585.841-2.425.269.831.525,1.617.786,2.425Z" transform="translate(-28.987 -29.398)"/></g></g></svg>